{
    "asset" : {
        "generator" : "Khronos glTF Blender I/O v3.3.32",
        "version" : "2.0"
    },
    "scene" : 0,
    "scenes" : [
        {
            "name" : "Scene",
            "nodes" : [
                0
            ]
        }
    ],
    "nodes" : [
        {
            "mesh" : 0,
            "name" : "Diamond",
            "rotation" : [
                0.000872675038408488,
                0,
                -0.0008726638625375926,
                1
            ],
            "scale" : [
                3.7444114685058594,
                3.7444114685058594,
                3.7444114685058594
            ],
            "translation" : [
                -7.299241065979004,
                -0.5402013063430786,
                -246.90869140625
            ]
        }
    ],
    "animations" : [
        {
            "channels" : [
                {
                    "sampler" : 0,
                    "target" : {
                        "node" : 0,
                        "path" : "translation"
                    }
                },
                {
                    "sampler" : 1,
                    "target" : {
                        "node" : 0,
                        "path" : "rotation"
                    }
                }
            ],
            "name" : "DiamondAction.004",
            "samplers" : [
                {
                    "input" : 6,
                    "interpolation" : "LINEAR",
                    "output" : 7
                },
                {
                    "input" : 8,
                    "interpolation" : "LINEAR",
                    "output" : 9
                }
            ]
        }
    ],
    "materials" : [
        {
            "doubleSided" : true,
            "name" : "Material.001",
            "pbrMetallicRoughness" : {
                "baseColorFactor" : [
                    255,
                    0,
                    0,
                    1
                ],
                "metallicFactor" : 0,
                "roughnessFactor" : 0.5
            }
        },
        {
            "doubleSided" : true,
            "name" : "Material.002",
            "pbrMetallicRoughness" : {
                "baseColorFactor" : [
                    0,
                    0,
                    255,
                    1
                ],
                "metallicFactor" : 0,
                "roughnessFactor" : 0.5
            }
        }
    ],
    "meshes" : [
        {
            "name" : "Diamond",
            "primitives" : [
                {
                    "attributes" : {
                        "POSITION" : 0,
                        "NORMAL" : 1
                    },
                    "indices" : 2,
                    "material" : 0
                },
                {
                    "attributes" : {
                        "POSITION" : 3,
                        "NORMAL" : 4
                    },
                    "indices" : 5,
                    "material" : 1
                }
            ]
        }
    ],
    "accessors" : [
        {
            "bufferView" : 0,
            "componentType" : 5126,
            "count" : 157,
            "max" : [
                1,
                0.3500000238418579,
                1
            ],
            "min" : [
                -1,
                -0.800000011920929,
                -1
            ],
            "type" : "VEC3"
        },
        {
            "bufferView" : 1,
            "componentType" : 5126,
            "count" : 157,
            "type" : "VEC3"
        },
        {
            "bufferView" : 2,
            "componentType" : 5123,
            "count" : 192,
            "type" : "SCALAR"
        },
        {
            "bufferView" : 3,
            "componentType" : 5126,
            "count" : 159,
            "max" : [
                0.9807852506637573,
                0.3500000238418579,
                0.9807852506637573
            ],
            "min" : [
                -0.9807852506637573,
                -0.800000011920929,
                -0.9807853698730469
            ],
            "type" : "VEC3"
        },
        {
            "bufferView" : 4,
            "componentType" : 5126,
            "count" : 159,
            "type" : "VEC3"
        },
        {
            "bufferView" : 5,
            "componentType" : 5123,
            "count" : 192,
            "type" : "SCALAR"
        },
        {
            "bufferView" : 6,
            "componentType" : 5126,
            "count" : 51,
            "max" : [
                2.0833333333333335
            ],
            "min" : [
                0
            ],
            "type" : "SCALAR"
        },
        {
            "bufferView" : 7,
            "componentType" : 5126,
            "count" : 51,
            "type" : "VEC3"
        },
        {
            "bufferView" : 8,
            "componentType" : 5126,
            "count" : 253,
            "max" : [
                10.5
            ],
            "min" : [
                0
            ],
            "type" : "SCALAR"
        },
        {
            "bufferView" : 9,
            "componentType" : 5126,
            "count" : 253,
            "type" : "VEC4"
        }
    ],
    "bufferViews" : [
        {
            "buffer" : 0,
            "byteLength" : 1884,
            "byteOffset" : 0,
            "target" : 34962
        },
        {
            "buffer" : 0,
            "byteLength" : 1884,
            "byteOffset" : 1884,
            "target" : 34962
        },
        {
            "buffer" : 0,
            "byteLength" : 384,
            "byteOffset" : 3768,
            "target" : 34963
        },
        {
            "buffer" : 0,
            "byteLength" : 1908,
            "byteOffset" : 4152,
            "target" : 34962
        },
        {
            "buffer" : 0,
            "byteLength" : 1908,
            "byteOffset" : 6060,
            "target" : 34962
        },
        {
            "buffer" : 0,
            "byteLength" : 384,
            "byteOffset" : 7968,
            "target" : 34963
        },
        {
            "buffer" : 0,
            "byteLength" : 204,
            "byteOffset" : 8352
        },
        {
            "buffer" : 0,
            "byteLength" : 612,
            "byteOffset" : 8556
        },
        {
            "buffer" : 0,
            "byteLength" : 1012,
            "byteOffset" : 9168
        },
        {
            "buffer" : 0,
            "byteLength" : 4048,
            "byteOffset" : 10180
        }
    ],
    "buffers" : [
        {
            "byteLength" : 14228,
            "uri" : "data:application/octet-stream;base64,"
        }
    ]
}
